#define left_width 16
#define left_height 16
static char left_bits[] = {
 0x00,0x00,0x00,0x00,0x00,0x00,0x00,0x00,0x00,0x00,0x00,0x00,0x00,0x24,0x00,
 0x12,0x00,0x09,0x00,0x12,0x00,0x24,0x00,0x00,0x00,0x00,0x00,0x00,0x00,0x00,
 0x00,0x00};
